<?xml version="1.0" encoding="UTF-8"?>
<svg width="44px" height="44px" viewBox="0 0 44 44" version="1.1" xmlns="http://www.w3.org/2000/svg" xmlns:xlink="http://www.w3.org/1999/xlink">
    <!-- Generator: Sketch 64 (93537) - https://sketch.com -->
    <title>audio</title>
    <desc>Created with Sketch.</desc>
    <g id="audio" stroke="none" stroke-width="1" fill="none" fill-rule="evenodd">
        <g transform="translate(9.000000, 10.000000)" fill="#333333" fill-rule="nonzero" id="Shape">
            <path d="M24.6201,13.3863 L24.6201,11.0526 C24.6201,4.9581 19.6314,0 13.5,0 C7.3686,0 2.3799,4.9581 2.3799,11.0526 L2.3799,13.3863 C0.98443,13.9625 0,15.3303 0,16.9229 L0,20.1709 C0,22.2822 1.7283,23.9997 3.8525,23.9997 C4.1485,23.9997 4.4522,23.963 4.7552,23.8905 L5.2928,23.7619 L5.2928,13.3326 L4.7559,13.204 C4.4518,13.1311 4.1478,13.0942 3.8525,13.0942 C3.829,13.0942 3.8062,13.0973 3.7827,13.0977 L3.7827,11.0526 C3.7827,5.7271 8.1419,1.3943 13.5,1.3943 C18.8581,1.3943 23.2173,5.7271 23.2173,11.0526 L23.2173,13.0977 C23.1938,13.0973 23.171,13.0942 23.1475,13.0942 C22.8522,13.0942 22.5482,13.1311 22.2441,13.204 L21.7072,13.3326 L21.7072,23.7623 L22.2448,23.8909 C22.5478,23.9634 22.8515,24 23.1475,24 C25.2721,24 27,22.2822 27,20.1713 L27,16.9233 C27,15.3303 26.0159,13.9625 24.6201,13.3863 Z M3.8904,14.4888 L3.8904,22.6054554 C2.5212,22.6144 1.4028,21.5258 1.4028,20.1713 L1.4028,16.9233 C1.4028,15.5809 2.5019,14.4888 3.8525,14.4888 C3.8651,14.4885 3.8777,14.4888 3.8904,14.4888 Z M25.5972,20.1713 C25.5972,21.5262 24.4872,22.6186 23.1096,22.6054 L23.1096,14.4888 C24.483,14.4655 25.5972,15.568 25.5972,16.9229 L25.5972,20.1713 Z"></path>
        </g>
    </g>
</svg>