<svg width="44" height="44" viewBox="0 0 44 44" fill="none" xmlns="http://www.w3.org/2000/svg">
<path d="M33.1202 9.95103H33.1362L33.1521 9.95049C33.3819 9.94276 33.6054 10.0263 33.7737 10.1827C33.9383 10.3357 34.0372 10.5463 34.05 10.7703V26.874C34.0372 27.0979 33.9383 27.3085 33.7737 27.4615C33.6054 27.618 33.3819 27.7015 33.1522 27.6938L33.1362 27.6933H33.1202H27.98H27.03V28.6433V33.0965L20.1011 27.8841L19.8474 27.6933H19.53H10.8798H10.8638L10.8478 27.6938C10.6181 27.7015 10.3946 27.618 10.2263 27.4615C10.0617 27.3085 9.96279 27.0979 9.95 26.874V10.7703C9.96279 10.5464 10.0617 10.3357 10.2263 10.1827C10.3946 10.0263 10.6181 9.94276 10.8478 9.95049L10.8638 9.95103H10.8798H33.1202Z" stroke="#222222" stroke-width="1.9"/>
</svg>
