<?xml version="1.0" encoding="UTF-8"?>
<svg width="44px" height="44px" viewBox="0 0 44 44" version="1.1" xmlns="http://www.w3.org/2000/svg" xmlns:xlink="http://www.w3.org/1999/xlink">
    <!-- Generator: Sketch 64 (93537) - https://sketch.com -->
    <title>Artboard</title>
    <desc>Created with Sketch.</desc>
    <g id="Artboard" stroke="none" stroke-width="1" fill="none" fill-rule="evenodd">
        <g id="chat" transform="translate(9.000000, 10.000000)" stroke="#FFFFFF" stroke-width="1.9">
            <path d="M24.1202,0.95103 L24.1362,0.95103 L24.1521,0.95049 C24.3819,0.94276 24.6054,1.0263 24.7737,1.1827 C24.9383,1.3357 25.0372,1.5463 25.05,1.7703 L25.05,17.874 C25.0372,18.0979 24.9383,18.3085 24.7737,18.4615 C24.6054,18.618 24.3819,18.7015 24.1522,18.6938 L24.1362,18.6933 L24.1202,18.6933 L18.98,18.6933 L18.03,18.6933 L18.03,19.6433 L18.03,24.0965 L11.1011,18.8841 L10.8474,18.6933 L10.53,18.6933 L1.8798,18.6933 L1.8638,18.6933 L1.8478,18.6938 C1.6181,18.7015 1.3946,18.618 1.2263,18.4615 C1.0617,18.3085 0.96279,18.0979 0.95,17.874 L0.95,1.7703 C0.96279,1.5464 1.0617,1.3357 1.2263,1.1827 C1.3946,1.0263 1.6181,0.94276 1.8478,0.95049 L1.8638,0.95103 L1.8798,0.95103 L24.1202,0.95103 Z" id="Path"></path>
        </g>
    </g>
</svg>