<svg width="20" height="16" viewBox="0 0 20 16" fill="none" xmlns="http://www.w3.org/2000/svg">
<path d="M15.8661 2.25576C15.7183 2.40505 15.6323 2.60524 15.6255 2.81588C15.6187 3.02651 15.6916 3.23189 15.8295 3.39051C16.9794 4.72323 17.6125 6.42897 17.6125 8.19405C17.6125 9.95912 16.9794 11.6649 15.8295 12.9976C15.7579 13.08 15.7031 13.1758 15.6683 13.2795C15.6336 13.3832 15.6195 13.4928 15.6269 13.6021C15.6343 13.7113 15.6631 13.8179 15.7115 13.916C15.76 14.014 15.8272 14.1014 15.9093 14.1732C15.9914 14.245 16.0867 14.2998 16.1899 14.3345C16.2931 14.3692 16.402 14.383 16.5105 14.3752C16.619 14.3674 16.7249 14.3381 16.8221 14.289C16.9193 14.2399 17.006 14.172 17.0771 14.0892C18.4886 12.4538 19.2659 10.3603 19.2659 8.19405C19.2659 6.02776 18.4886 3.93432 17.0771 2.29889C17.0026 2.21252 16.9112 2.14252 16.8086 2.09323C16.706 2.04393 16.5945 2.01641 16.4809 2.01236C16.3673 2.00832 16.2541 2.02784 16.1483 2.06971C16.0426 2.11159 15.9465 2.17492 15.8661 2.25576Z" fill="#4AA842"/>
<path d="M12.7277 10.9731L12.7421 10.9875C12.8236 11.0707 12.922 11.1354 13.0304 11.177C13.1389 11.2187 13.255 11.2365 13.3709 11.2292C13.4868 11.2219 13.5998 11.1897 13.7023 11.1347C13.8048 11.0797 13.8943 11.0032 13.9649 10.9104C14.5454 10.1255 14.8589 9.17312 14.8589 8.19466C14.8589 7.21621 14.5454 6.26383 13.9649 5.47893C13.8943 5.38614 13.8048 5.30966 13.7023 5.25466C13.5998 5.19966 13.4868 5.16742 13.3709 5.16011C13.255 5.1528 13.1389 5.17059 13.0304 5.21228C12.922 5.25397 12.8236 5.3186 12.7421 5.4018L12.7277 5.41626C12.5894 5.55875 12.5065 5.74641 12.4939 5.94519C12.4813 6.14397 12.5399 6.3407 12.6591 6.49971C13.0143 6.99256 13.2056 7.58581 13.2056 8.19466C13.2056 8.80351 13.0143 9.39677 12.6591 9.88961C12.5399 10.0486 12.4813 10.2454 12.4939 10.4441C12.5065 10.6429 12.5894 10.8306 12.7277 10.9731Z" fill="#4AA842"/>
<path d="M1.55658 11.4238H3.66913L9.18149 15.621C9.2541 15.6763 9.34059 15.7101 9.43124 15.7186C9.52189 15.7272 9.6131 15.71 9.69462 15.6692C9.77613 15.6284 9.84472 15.5655 9.89267 15.4877C9.94061 15.4098 9.96601 15.3199 9.96601 15.2283V1.15909C9.96601 1.06746 9.94061 0.977642 9.89267 0.899747C9.84472 0.821851 9.77613 0.758964 9.69462 0.718157C9.6131 0.67735 9.52189 0.660242 9.43124 0.668757C9.34059 0.677272 9.2541 0.711073 9.18149 0.766357L3.66913 4.9636H1.55658C1.43963 4.96361 1.32382 4.98679 1.21577 5.03184C1.10773 5.07688 1.00955 5.14291 0.926853 5.22614C0.844156 5.30937 0.778557 5.40818 0.733803 5.51693C0.689048 5.62568 0.666014 5.74223 0.666016 5.85994V10.5275C0.666014 10.6452 0.689048 10.7617 0.733803 10.8705C0.778557 10.9792 0.844156 11.078 0.926853 11.1613C1.00955 11.2445 1.10773 11.3105 1.21577 11.3556C1.32382 11.4006 1.43963 11.4238 1.55658 11.4238Z" fill="#4AA842"/>
</svg>
