<?xml version="1.0" encoding="UTF-8"?>
<svg width="44px" height="44px" viewBox="0 0 44 44" version="1.1" xmlns="http://www.w3.org/2000/svg" xmlns:xlink="http://www.w3.org/1999/xlink">
    <!-- Generator: Sketch 64 (93537) - https://sketch.com -->
    <title>printer</title>
    <desc>Created with Sketch.</desc>
    <g id="printer" stroke="none" stroke-width="1" fill="none" fill-rule="evenodd">
        <g id="print" transform="translate(8.000000, 9.000000)" fill="#333333" fill-rule="nonzero" stroke="#333333" stroke-width="0.5">
            <path d="M26.4137,5.2452 L21.3004,5.2452 L21.3004,0.59527 C21.3004,0.51709 21.285,0.43968 21.2551,0.36745 C21.2252,0.29521 21.1814,0.22958 21.1261,0.1743 C21.0708,0.11903 21.0052,0.07518 20.9329,0.04527 C20.8607,0.01536 20.7833,-1.94807583e-08 20.7051,-1.94807583e-08 L7.2845,-1.94807583e-08 C7.1267,-1.94807583e-08 6.9753,0.06273 6.8636,0.17436 C6.752,0.28599 6.6893,0.4374 6.6893,0.59527 L6.6893,5.2452 L1.58648,5.2452 C1.4286,5.2452 1.2772,5.3079 1.16556,5.4196 C1.05393,5.5312 0.991209981,5.6826 0.991209981,5.8405 L0.991209981,20.9692 C0.991209981,21.0474 1.00657,21.1248 1.03648,21.1971 C1.06639,21.2693 1.11024,21.3349 1.16552,21.3902 C1.2208,21.4455 1.28643,21.4893 1.35866,21.5192 C1.43089,21.5492 1.5083,21.5645 1.58648,21.5645 L6.7131,21.5645 L6.7131,25.4791 C6.7131,25.5573 6.7285,25.6347 6.7584,25.7069 C6.7883,25.7792 6.8321,25.8448 6.8874,25.9001 C6.9427,25.9553 7.0083,25.9992 7.0806,26.0291 C7.1528,26.059 7.2302,26.0744 7.3084,26.0744 L20.6917,26.0744 C20.7699,26.0744 20.8474,26.0591 20.9196,26.0292 C20.9918,25.9993 21.0575,25.9554 21.1128,25.9001 C21.1681,25.8448 21.2119,25.7792 21.2418,25.707 C21.2717,25.6347 21.2871,25.5573 21.287,25.4791 L21.287,21.5645 L26.4137,21.5645 C26.4918,21.5646 26.5693,21.5492 26.6415,21.5193 C26.7137,21.4894 26.7794,21.4456 26.8347,21.3903 C26.89,21.335 26.9338,21.2694 26.9637,21.1971 C26.9936,21.1249 27.0089005,21.0475 27.0089005,20.9693 L27.0089005,5.8405 C27.0089005,5.7623 26.9936,5.6849 26.9637,5.6127 C26.9338,5.5405 26.8899,5.4748 26.8346,5.4195 C26.7793,5.3643 26.7137,5.3204 26.6415,5.2905 C26.5693,5.2606 26.4918,5.2452 26.4137,5.2452 Z M7.8798,1.1905 L20.1098,1.1905 L20.1098,5.2246 L7.8798,5.2246 L7.8798,1.1905 Z M20.0965,24.8839 L7.9036,24.8839 L7.9036,14.4853 L20.0965,14.4853 L20.0965,24.8839 L20.0965,24.8839 Z M25.8184,20.374 L21.287,20.374 L21.287,13.89 C21.287,13.8118 21.2717,13.7344 21.2417,13.6622 C21.2118,13.5899 21.168,13.5243 21.1127,13.469 C21.0574,13.4137 20.9918,13.3699 20.9196,13.34 C20.8473,13.3101 20.7699,13.2947 20.6917,13.2947 L7.3084,13.2947 C7.1505,13.2947 6.9991,13.3574 6.8875,13.4691 C6.7758,13.5807 6.7131,13.7321 6.7131,13.89 L6.7131,20.374 L2.1817,20.374 L2.1817,6.4358 L25.8184,6.4358 L25.8184,20.374 Z" id="Shape"></path>
        </g>
    </g>
</svg>