<svg width="44" height="44" viewBox="0 0 44 44" fill="none" xmlns="http://www.w3.org/2000/svg">
<path fill-rule="evenodd" clip-rule="evenodd" d="M19.6168 28.4629C24.4869 28.4629 28.4349 24.515 28.4349 19.6449C28.4349 14.7749 24.4869 10.8269 19.6168 10.8269C14.7468 10.8269 10.7988 14.7749 10.7988 19.6449C10.7988 24.515 14.7468 28.4629 19.6168 28.4629ZM19.6168 30.4629C25.5915 30.4629 30.4349 25.6196 30.4349 19.6449C30.4349 13.6703 25.5915 8.8269 19.6168 8.8269C13.6422 8.8269 8.79883 13.6703 8.79883 19.6449C8.79883 25.6196 13.6422 30.4629 19.6168 30.4629Z" fill="#222222"/>
<rect x="26.0244" y="27.7532" width="2.88481" height="9.80875" transform="rotate(-45 26.0244 27.7532)" fill="#222222"/>
</svg>
