<?xml version="1.0" encoding="UTF-8"?>
<svg width="44px" height="44px" viewBox="0 0 44 44" version="1.1" xmlns="http://www.w3.org/2000/svg" xmlns:xlink="http://www.w3.org/1999/xlink">
    <!-- Generator: Sketch 64 (93537) - https://sketch.com -->
    <title>Artboard Copy</title>
    <desc>Created with Sketch.</desc>
    <g id="Artboard-Copy" stroke="none" stroke-width="1" fill="none" fill-rule="evenodd">
        <g id="search" transform="translate(9.000000, 9.000000)" fill="#FFFFFF">
            <path d="M11.6168,20.4629 C16.4869,20.4629 20.4349,16.515 20.4349,11.6449 C20.4349,6.7749 16.4869,2.8269 11.6168,2.8269 C6.7468,2.8269 2.7988,6.7749 2.7988,11.6449 C2.7988,16.515 6.7468,20.4629 11.6168,20.4629 Z M11.6168,22.4629 C17.5915,22.4629 22.4349,17.6196 22.4349,11.6449 C22.4349,5.6703 17.5915,0.8269 11.6168,0.8269 C5.6422,0.8269 0.79883,5.6703 0.79883,11.6449 C0.79883,17.6196 5.6422,22.4629 11.6168,22.4629 Z" id="Shape"></path>
            <rect id="Rectangle" fill-rule="nonzero" transform="translate(22.512251, 22.201182) rotate(-45.000000) translate(-22.512251, -22.201182) " x="21.0698462" y="17.2968075" width="2.88481" height="9.80875"></rect>
        </g>
    </g>
</svg>