<svg width="44" height="44" viewBox="0 0 44 44" fill="none" xmlns="http://www.w3.org/2000/svg">
<path fill-rule="evenodd" clip-rule="evenodd" d="M22.7326 29.3333C26.7827 29.3333 30.066 26.05 30.066 22C30.066 17.9499 26.7827 14.6666 22.7326 14.6666C18.6825 14.6666 15.3993 17.9499 15.3993 22C15.3993 26.05 18.6825 29.3333 22.7326 29.3333ZM22.7326 30.8C27.5927 30.8 31.5326 26.8601 31.5326 22C31.5326 17.1398 27.5927 13.2 22.7326 13.2C17.8725 13.2 13.9326 17.1398 13.9326 22C13.9326 26.8601 17.8725 30.8 22.7326 30.8Z" fill="#222222"/>
<rect x="22.4502" y="24.7762" width="1.46667" height="5.1009" transform="rotate(135 22.4502 24.7762)" fill="#222222"/>
<rect x="21.4131" y="25.8132" width="1.46667" height="8.75158" transform="rotate(-135 21.4131 25.8132)" fill="#222222"/>
</svg>
