<?xml version="1.0" encoding="UTF-8"?>
<svg width="83px" height="24px" viewBox="0 0 83 24" version="1.1" xmlns="http://www.w3.org/2000/svg" xmlns:xlink="http://www.w3.org/1999/xlink">
    <!-- Generator: Sketch 64 (93537) - https://sketch.com -->
    <title>Logo</title>
    <desc>Created with Sketch.</desc>
    <g id="Page-1" stroke="none" stroke-width="1" fill="none" fill-rule="evenodd">
        <g id="Logo" fill="#222222">
            <path d="M62.87,16.6973 C62.87,17.6111 62.3162,17.6111 61.5408,17.6111 L60.9592,17.6111 L60.9592,18.3311 C62.0392,18.3034 63.0362,18.2757 64.0331,18.2757 C65.0301,18.2757 65.9993,18.3311 66.9686,18.3311 L66.9686,17.6111 L66.4701,17.6111 C65.6947,17.6111 65.0854,17.6111 65.0854,16.6973 L65.0854,8.5002 C65.7224,8.05711 67.2732,7.17095 68.3532,7.17095 C70.4025,7.17095 70.7625,8.83251 70.7625,10.5772 L70.7625,16.6973 C70.7625,17.6111 70.2086,17.6111 69.4332,17.6111 L68.9347,17.6111 L68.9347,18.3311 C69.9317,18.3034 70.9286,18.2757 71.9256,18.2757 C72.9225,18.2757 73.9194,18.3311 74.8887,18.3311 L74.8887,17.6111 L74.3902,17.6111 C73.6148,17.6111 72.9779,17.6111 72.9779,16.6973 L72.9779,8.5002 C73.6148,8.05711 75.1656,7.17095 76.2456,7.17095 C78.2949,7.17095 78.6549,8.83251 78.6549,10.5772 L78.6549,16.6973 C78.6549,17.6111 78.101,17.6111 77.3256,17.6111 L76.8272,17.6111 L76.8272,18.3311 C77.8241,18.3034 78.8211,18.2757 79.818,18.2757 C80.8149,18.2757 81.7842,18.3311 82.6703,18.3311 L82.6703,17.6111 L82.255,17.6111 C81.4796,17.6111 80.8703,17.6111 80.8703,16.6973 L80.8703,9.58021 C80.8703,7.55864 79.9841,5.67554 77.5749,5.67554 C75.581,5.67554 74.3071,6.81094 72.8117,7.80788 C72.424,6.36786 71.344,5.67554 69.8763,5.67554 C67.8824,5.67554 66.6085,6.67248 65.0854,7.75249 L65.0854,6.06324 C65.0854,5.84169 65.0301,5.67554 64.8916,5.67554 C64.7531,5.67554 64.587,5.70323 64.3931,5.814 C64.2547,5.89708 64.1716,6.42324 62.87,6.81094 L62.87,7.25402 C62.87,8.30901 62.87,7.97404 62.87,9.19252 L62.87,16.6973 Z" id="Path" fill-rule="nonzero"></path>
            <path d="M61.0867,18.3314 C62.1113,18.3037 63.1082,18.276 64.1052,18.276 C65.1021,18.276 66.0714,18.3314 67.0129,18.3314 L67.0129,17.6114 L66.5421,17.6114 C65.7667,17.6114 65.1575,17.6114 65.1575,16.6975 L65.1575,6.06348 C65.1575,5.84194 65.1021,5.67578 64.9637,5.67578 C64.8252,5.67578 64.659,5.70347 64.4652,5.81424 C64.3544,5.89732 64.2436,6.42349 62.9421,6.81118 L62.9421,7.25427 C63.9667,7.80812 62.9421,7.97428 62.9421,9.19276 L62.9421,16.6975 C62.9421,17.6114 62.3882,17.6114 61.6128,17.6114 L61.0867,17.6114 L61.0867,18.3314 Z" id="Path" fill-rule="nonzero"></path>
            <path d="M65.1577,5.53973 C63.8003,5.57641 62.4469,5.53973 61.0861,5.53973 L61.0861,6.25974 L61.5569,6.25974 C62.3323,6.25974 62.9416,6.25974 62.9416,7.1736 L62.9416,17.8076 C62.9416,18.0292 62.9969,18.1953 63.1354,18.1953 C63.2739,18.1953 63.44,18.1676 63.6339,18.0568 C63.7446,17.9738 63.8554,17.4476 65.157,17.0599 L65.157,16.6168 C64.1323,16.063 65.157,15.8968 65.157,14.6783 L65.157,7.1736 C65.157,6.00502 65.1577,6.63234 65.1577,5.53973 Z" id="Path" fill-rule="nonzero"></path>
            <path d="M57.1096,10.9465 C51.128,12.9958 49.9926,13.4112 49.8818,15.6266 C49.8818,17.0943 51.1003,18.3128 52.8727,18.3128 C54.5896,18.3128 55.8358,17.4543 57.1373,16.2635 C57.7007,14.6241 57.3536,12.0358 57.1096,10.9465 Z M56.9548,15.5419 C57.0062,15.4964 57.0578,15.4508 57.1097,15.4052 L57.1097,11.7498 C56.8421,11.8547 56.496,11.9627 56.1107,12.0828 C54.4624,12.5967 52.0974,13.3341 52.0974,15.0175 C52.0974,16.0976 52.9835,17.0114 54.0635,17.0114 C55.2912,17.0114 56.1,16.2969 56.9548,15.5419 Z" id="Shape"></path>
            <path d="M54.6183,7.16679 C53.5383,7.16679 51.8015,8.26132 51.1646,8.7044 L51.1646,7.64944 C52.4833,6.59448 53.9537,5.67139 55.9475,5.67139 C58.3568,5.67139 59.243,7.55449 59.243,9.57606 L59.243,16.6931 C59.243,17.607 59.8522,17.607 60.6276,17.607 L61.043,17.607 L61.043,18.327 C60.1568,18.327 58.1906,18.2716 58.1906,18.2716 C58.1906,18.2716 57.0276,17.946 57.0276,16.6931 L57.0276,10.573 C57.0276,8.82836 56.6675,7.16679 54.6183,7.16679 Z" id="Path" fill-rule="nonzero"></path>
            <path d="M33.1079,24.0003 C31.5254,24.0003 30.2067,23.6487 29.1518,22.9454 C28.0968,22.2421 27.5693,21.3717 27.5693,20.3343 C27.5693,19.6838 27.754,19.1827 28.1232,18.831 L29.3891,18.1717 L29.3891,18.0662 C28.5276,17.6266 28.0968,16.9673 28.0968,16.0881 C28.0968,15.4727 28.299,14.9277 28.7034,14.4529 C29.1078,13.9782 29.6617,13.6265 30.365,13.398 L30.365,13.3452 C30.365,13.3452 30.9189,13.187 30.9188,13.609 C30.0221,13.8551 29.5738,14.3826 29.5738,15.1914 C29.5738,15.631 29.7055,15.6925 30.0352,16.0222 C30.3869,16.3211 30.9013,16.3519 31.4463,16.3519 L37.064,16.3519 C38.0134,16.3519 38.8662,17.1782 39.2003,17.6706 C39.5344,18.1453 39.7014,18.7079 39.7014,19.3585 C39.7014,20.6245 39.0596,21.7146 37.7761,22.6289 C36.4926,23.5432 34.9365,24.0003 33.1079,24.0003 Z M29.099,19.886 C29.099,20.8179 29.5474,21.6003 30.4441,22.2333 C31.3408,22.8662 32.4485,23.1827 33.7672,23.1827 C34.998,23.1827 36.0266,22.8926 36.853,22.3124 C37.6794,21.7322 38.0926,20.9849 38.0926,20.0706 C38.0926,19.508 37.9343,19.0948 37.6178,18.831 C37.3189,18.5673 36.8354,18.4354 36.1673,18.4354 L31.1562,18.4354 C30.7342,18.4354 30.2947,18.3739 29.8375,18.2508 C29.3452,18.5673 29.099,19.1123 29.099,19.886 Z" id="Shape" fill-rule="nonzero"></path>
            <path d="M28.0055,11.153 C28.5059,13.7274 31.4009,14.8957 34.5378,14.2861 C37.5568,13.6993 39.5785,11.2557 39.124,8.91695 C38.6237,6.34255 35.8466,5.15133 32.5682,5.78847 C29.4077,6.40268 27.551,8.81426 28.0055,11.153 Z M30.2794,10.5229 C29.9764,8.9638 30.3484,6.70904 32.6834,6.25525 C35.1835,5.76938 36.5613,8.06037 36.8502,9.547 C37.1532,11.1061 36.7812,13.3609 34.4226,13.8193 C31.9461,14.3006 30.5683,12.0096 30.2794,10.5229 Z" id="Shape" fill-rule="nonzero"></path>
            <polygon id="Path" fill-rule="nonzero" points="33.5303 5.6709 39.4644 5.6709 39.4644 6.39618 35.5743 6.39618"></polygon>
            <path d="M36.2991,6.06618 C37.6565,6.10287 37.0318,6.06618 38.3926,6.06618 L38.3174,6.39058 C37.542,6.39058 37.2222,6.59364 37.9475,7.253 C36.9676,7.25272 37.0079,7.30444 36.2998,7.30444 C36.2998,6.13587 36.2991,7.15879 36.2991,6.06618 Z" id="Path" fill-rule="nonzero"></path>
            <path d="M40.783,18.4612 C41.0761,18.4616 44.4674,18.4612 46.4455,18.4612 L46.4455,17.7412 L45.9748,17.7412 C45.1994,17.7412 44.5901,17.7412 44.5901,16.8274 L44.5901,6.19336 C44.5901,5.97182 44.5347,5.80566 44.3963,5.80566 C44.2578,5.80566 44.0917,5.83336 43.8978,5.94413 C43.787,6.02721 43.6763,6.55337 42.3747,6.94107 L42.3747,7.38415 C43.3993,7.938 42.3747,8.10416 42.3747,9.32264 L42.3747,16.8274 C42.3747,17.7412 41.8208,17.7412 41.0454,17.7412 L40.5193,17.7412 C40.5193,17.7412 40.6805,18.1319 40.783,18.4612 Z" id="Path" fill-rule="nonzero"></path>
            <path d="M44.5903,5.66961 C43.233,5.7063 41.8795,5.66961 40.5188,5.66961 L40.5188,6.38962 L40.9895,6.38962 C41.7649,6.38962 42.3742,6.38962 42.3742,7.30348 L42.3742,17.9375 C42.3742,18.159 42.4296,18.3252 42.568,18.3252 C42.7065,18.3252 42.8726,18.2975 43.0665,18.1867 C43.1773,18.1037 43.288,17.5775 44.5896,17.1898 L44.5896,16.7467 C43.565,16.1929 44.5896,16.0267 44.5896,14.8082 L44.5896,7.30348 C44.5896,6.13491 44.5903,6.76222 44.5903,5.66961 Z" id="Path" fill-rule="nonzero"></path>
            <path d="M44.4387,8.32818 L44.5772,8.06444 C45.2418,7.08596 45.8603,6.66662 46.4326,6.27892 C47.0234,5.87276 47.6722,5.66968 48.495,5.66968 C49.5817,5.66968 50.1091,5.99935 50.3452,6.13122 L50.3452,8.70269 L49.9772,8.70269 C49.6475,7.91141 49.3179,7.12019 48.3289,6.98838 C47.3399,6.85657 46.3588,7.55542 45.768,8.01697 C45.1772,8.47851 44.7433,8.88204 44.4664,9.49128 L44.4387,8.32818 Z" id="Path" fill-rule="nonzero"></path>
            <path d="M25.3191,1.25277 C25.3191,1.94465 24.7582,2.50553 24.0664,2.50553 C23.3745,2.50553 22.8136,1.94465 22.8136,1.25277 C22.8136,0.560883 23.3745,0 24.0664,0 C24.7582,0 25.3191,0.560883 25.3191,1.25277 Z M25.3192,5.67139 L25.3192,5.67038 L15.9564,5.67038 L15.9564,6.39567 L16.0341,6.39567 L16.0341,6.41383 C16.0789,6.41607 16.1273,6.41795 16.1784,6.41993 C16.7598,6.44247 17.6957,6.47876 17.6957,7.21692 C17.6957,7.90924 17.391,8.79541 17.2526,9.1831 L17.2524,9.18356 C16.4771,11.205 15.7017,13.2264 14.8987,15.2201 L14.8433,15.2201 L12.5448,9.12772 C12.2402,8.38001 11.9079,7.35538 11.9079,7.07845 C11.9079,6.50369 12.5499,6.4674 13.1713,6.43227 C13.2684,6.42678 13.3651,6.42132 13.4587,6.41383 L13.4587,5.69382 C13.0017,5.69382 12.5448,5.70766 12.0879,5.72151 C11.631,5.73536 11.174,5.7492 10.7171,5.7492 C9.72016,5.7492 8.69552,5.72151 7.69858,5.69382 L7.69858,6.41383 C8.83399,6.49691 9.69246,6.9123 9.69246,8.21386 C9.69246,8.54617 9.66477,8.85079 9.554,9.12772 L7.20011,15.2201 L4.29238,7.77077 C4.1816,7.49385 4.07083,7.13384 4.07083,6.93999 C4.07083,6.5246 4.54161,6.41383 5.51086,6.41383 L5.51086,5.69382 C5.11147,5.69382 4.68647,5.70662 4.24511,5.71991 C3.76839,5.73427 3.27257,5.7492 2.76927,5.7492 C1.85541,5.7492 0.913861,5.72151 0,5.69382 L0,6.41383 C1.05232,6.41383 1.32925,6.44152 2.13234,8.54617 L6.06471,18.3494 L6.96241,18.3494 L7.03396,18.1832 L10.3571,9.62619 L13.7633,18.3494 L14.6919,18.3494 L14.7602,18.1832 L18.6649,8.40771 C19.1634,7.16153 19.5788,6.41383 20.8249,6.41383 L20.8249,6.39567 L22.1244,6.39567 C22.7065,6.41843 23.1225,6.54954 23.1225,7.30474 L23.1225,16.8737 C23.1044,17.7424 22.5561,17.7424 21.7937,17.7424 L21.2676,17.7424 L21.2676,18.4624 L21.3485,18.4602 L21.3486,18.4602 L21.3487,18.4602 L21.3487,18.4602 C22.3449,18.4332 23.3155,18.407 24.2861,18.407 C24.7917,18.407 25.2901,18.4212 25.7815,18.4353 L25.7816,18.4353 C26.2591,18.4489 26.7298,18.4624 27.1938,18.4624 L27.1938,17.7424 L26.723,17.7424 C25.9476,17.7424 25.3384,17.7424 25.3384,16.8285 L25.3384,6.39225 C25.3386,6.28006 25.3387,6.1222 25.3387,5.67087 C25.3322,5.67105 25.3257,5.67122 25.3192,5.67139 Z" id="Shape"></path>
        </g>
    </g>
</svg>